<svg width="131" height="130" viewBox="0 0 131 130" fill="none" xmlns="http://www.w3.org/2000/svg">
<path d="M36.4231 1C33.2006 1 30.5769 3.62364 30.5769 6.84615V21.3846C30.5769 24.6071 33.2006 27.2308 36.4231 27.2308C39.6456 27.2308 42.2692 24.6071 42.2692 21.3846V6.84615C42.2692 3.62364 39.6456 1 36.4231 1ZM94.5769 1C91.3544 1 88.7308 3.62364 88.7308 6.84615V21.3846C88.7308 24.6071 91.3544 27.2308 94.5769 27.2308C97.7994 27.2308 100.423 24.6071 100.423 21.3846V6.84615C100.423 3.62364 97.7994 1 94.5769 1ZM17.0385 10.6923C8.46095 10.6923 1.5 17.6533 1.5 26.2308V113.462C1.5 122.039 8.46095 129 17.0385 129H113.962C122.539 129 129.5 122.039 129.5 113.462V26.2308C129.5 17.6533 122.539 10.6923 113.962 10.6923H105.269C104.165 10.6923 103.269 11.5877 103.269 12.6923V21.3846C103.269 23.69 102.353 25.9009 100.723 27.531C99.0932 29.1611 96.8823 30.0769 94.5769 30.0769C92.2716 30.0769 90.0607 29.1611 88.4305 27.531C86.8004 25.9009 85.8846 23.69 85.8846 21.3846V12.6923C85.8846 11.5877 84.9892 10.6923 83.8846 10.6923H47.1154C46.0108 10.6923 45.1154 11.5877 45.1154 12.6923V21.3846C45.1154 23.69 44.1996 25.9009 42.5695 27.531C40.9393 29.1611 38.7284 30.0769 36.4231 30.0769C34.1177 30.0769 31.9068 29.1611 30.2767 27.531C28.6466 25.9009 27.7308 23.69 27.7308 21.3846V12.6923C27.7308 11.5877 26.8353 10.6923 25.7308 10.6923H17.0385ZM13.1923 46.6154H117.808V113.462C117.808 115.579 116.079 117.308 113.962 117.308H17.0385C14.9205 117.308 13.1923 115.579 13.1923 113.462V46.6154Z" fill="#FFA45A" stroke="white" stroke-width="2"/>
</svg>
